# xmcd
#
# Track frame offsets: 
#        150
#        20010
#        40800
#        59312
#        81730
#        103515
#        123352
#        146735
#
# Disc length: 2254 seconds
#
# Revision: 7
# Processed by: cddbd v1.5.2PL0 Copyright (c) Steve Scherf et al.
# Submitted via: ExactAudioCopy v1.3
#
DISCID=6f08cc08
DTITLE=Shadowfax - The Dreams of Children
DYEAR=1984
DGENRE=Jazz
TTITLE0=Another Country
TTITLE1=Snowline
TTITLE2=The Big Song
TTITLE3=The Dreams of Children
TTITLE4=Word from the Village
TTITLE5=Kindred Spirits
TTITLE6=Shaman Song
TTITLE7=Above the Wailing Wall
EXTD=
EXTT0=
EXTT1=
EXTT2=
EXTT3=
EXTT4=
EXTT5=
EXTT6=
EXTT7=
PLAYORDER=
